<svg width="31" height="29" viewBox="0 0 31 29" fill="none" xmlns="http://www.w3.org/2000/svg">
<path d="M21 9.66675C23.1975 9.66675 25.305 10.5397 26.8589 12.0936C28.4128 13.6475 29.2857 15.755 29.2857 17.9525V27.6191H23.7619V17.9525C23.7619 17.22 23.4709 16.5175 22.953 15.9995C22.435 15.4815 21.7325 15.1906 21 15.1906C20.2675 15.1906 19.565 15.4815 19.047 15.9995C18.5291 16.5175 18.2381 17.22 18.2381 17.9525V27.6191H12.7143V17.9525C12.7143 15.755 13.5873 13.6475 15.1411 12.0936C16.695 10.5397 18.8025 9.66675 21 9.66675V9.66675Z" stroke="white" stroke-width="2" stroke-linecap="round" stroke-linejoin="round"/>
<path d="M7.1905 11.0476H1.66669V27.619H7.1905V11.0476Z" stroke="white" stroke-width="2" stroke-linecap="round" stroke-linejoin="round"/>
<path d="M4.42859 6.90467C5.95395 6.90467 7.1905 5.66812 7.1905 4.14276C7.1905 2.61741 5.95395 1.38086 4.42859 1.38086C2.90323 1.38086 1.66669 2.61741 1.66669 4.14276C1.66669 5.66812 2.90323 6.90467 4.42859 6.90467Z" stroke="white" stroke-width="2" stroke-linecap="round" stroke-linejoin="round"/>
</svg>
