<svg width="30" height="30" viewBox="0 0 30 30" fill="none" xmlns="http://www.w3.org/2000/svg">
<path d="M28.4645 21.9848V26.1277C28.4661 26.5123 28.3873 26.8929 28.2332 27.2453C28.0792 27.5977 27.8532 27.914 27.5698 28.174C27.2864 28.434 26.9518 28.632 26.5875 28.7552C26.2232 28.8784 25.8371 28.9242 25.4541 28.8896C21.2046 28.4278 17.1228 26.9758 13.5364 24.65C10.1998 22.5298 7.37096 19.7009 5.25073 16.3643C2.91689 12.7617 1.4645 8.65999 1.01121 4.39147C0.976699 4.00959 1.02208 3.62471 1.14447 3.26133C1.26686 2.89795 1.46357 2.56404 1.72208 2.28085C1.98058 1.99766 2.29522 1.7714 2.64597 1.61648C2.99671 1.46155 3.37587 1.38135 3.7593 1.38099H7.90216C8.57235 1.3744 9.22206 1.61172 9.73021 2.04873C10.2384 2.48574 10.5703 3.09261 10.6641 3.75623C10.8389 5.08204 11.1632 6.38381 11.6307 7.63671C11.8165 8.13098 11.8567 8.66816 11.7466 9.18459C11.6365 9.70102 11.3806 10.1751 11.0093 10.5505L9.25549 12.3043C11.2214 15.7616 14.0839 18.6242 17.5412 20.59L19.295 18.8362C19.6705 18.4649 20.1445 18.2091 20.6609 18.0989C21.1774 17.9888 21.7146 18.029 22.2088 18.2148C23.4617 18.6823 24.7635 19.0066 26.0893 19.1815C26.7601 19.2761 27.3728 19.614 27.8107 20.1309C28.2487 20.6477 28.4813 21.3075 28.4645 21.9848Z" stroke="white" stroke-width="2" stroke-linecap="round" stroke-linejoin="round"/>
</svg>
