<svg width="30" height="30" viewBox="0 0 30 30" fill="none" xmlns="http://www.w3.org/2000/svg">
<path d="M21.7143 1.38086H7.90476C4.09137 1.38086 1 4.47223 1 8.28562V22.0951C1 25.9085 4.09137 28.9999 7.90476 28.9999H21.7143C25.5277 28.9999 28.619 25.9085 28.619 22.0951V8.28562C28.619 4.47223 25.5277 1.38086 21.7143 1.38086Z" stroke="white" stroke-width="2" stroke-linecap="round" stroke-linejoin="round"/>
<path d="M20.3333 14.3205C20.5038 15.4698 20.3075 16.6436 19.7723 17.6749C19.2372 18.7061 18.3905 19.5424 17.3527 20.0648C16.3149 20.5872 15.1388 20.769 13.9917 20.5844C12.8446 20.3998 11.7849 19.8582 10.9634 19.0367C10.1418 18.2151 9.6002 17.1554 9.41562 16.0083C9.23103 14.8612 9.41285 13.6851 9.93522 12.6473C10.4576 11.6095 11.2939 10.7628 12.3252 10.2277C13.3565 9.69257 14.5302 9.49626 15.6795 9.66669C16.8518 9.84053 17.9372 10.3868 18.7752 11.2248C19.6132 12.0628 20.1595 13.1482 20.3333 14.3205Z" stroke="white" stroke-width="2" stroke-linecap="round" stroke-linejoin="round"/>
<path d="M22.4048 7.59521H22.4181" stroke="white" stroke-width="2" stroke-linecap="round" stroke-linejoin="round"/>
</svg>
